<?xml version="1.0" encoding="UTF-8"?>
<svg width="53px" height="62px" viewBox="0 0 53 62" version="1.1" xmlns="http://www.w3.org/2000/svg" xmlns:xlink="http://www.w3.org/1999/xlink">
    <!-- Generator: Sketch 52.6 (67491) - http://www.bohemiancoding.com/sketch -->
    <title>apple-logo</title>
    <desc>Created with Sketch.</desc>
    <g id="Page-1" stroke="none" stroke-width="1" fill="none" fill-rule="evenodd">
        <g id="Desktop-HD" transform="translate(-1038.000000, -1113.000000)" fill="#FFFFFF" fill-rule="nonzero">
            <g id="Group-5" transform="translate(983.000000, 1069.000000)">
                <g id="Apple_logo_black" transform="translate(55.000000, 44.000000)">
                    <path d="M51.8891983,48.2763828 C50.9376374,50.4488921 49.8113,52.4486754 48.5063022,54.2872478 C46.7274659,56.7936941 45.2709952,58.5286309 44.1485417,59.4920582 C42.4085446,61.0734608 40.5442621,61.8833538 38.5479261,61.9294141 C37.1147589,61.9294141 35.3864136,61.5263867 33.374542,60.708817 C31.3560677,59.8950856 29.5011066,59.4920582 27.8049978,59.4920582 C26.0261615,59.4920582 24.118379,59.8950856 22.0777664,60.708817 C20.0340466,61.5263867 18.3876521,61.9524442 17.1288729,61.9946661 C15.2144878,62.0752716 13.3063169,61.2423484 11.4016415,59.4920582 C10.1859739,58.4441871 8.66541844,56.6478366 6.84385901,54.1030068 C4.88946944,51.3854509 3.2826909,48.2341608 2.02391177,44.6414599 C0.675802433,40.7608822 0,37.003132 0,33.3651384 C0,29.1978356 0.911168108,25.6035993 2.73622307,22.5916415 C4.17055547,20.1723259 6.07872637,18.2638955 8.46695002,16.8628956 C10.8551737,15.4618958 13.4356515,14.7479616 16.2145977,14.7022852 C17.7351532,14.7022852 19.7291587,15.1671101 22.207101,16.0806387 C24.6780522,16.9972381 26.2646343,17.4620629 26.9602448,17.4620629 C27.4803019,17.4620629 29.2428257,16.9185518 32.230727,15.834984 C35.0562802,14.8301024 37.4410084,14.4140247 39.3946211,14.5779224 C44.6884069,15.0001416 48.665543,17.0624901 51.3104939,20.7780185 C46.575993,23.613028 44.233988,27.583807 44.280595,32.6776889 C44.3233182,36.6453972 45.7797889,39.9471508 48.6422395,42.5687478 C49.9394694,43.7855066 51.3881724,44.7259037 53,45.3937776 C52.650447,46.3955885 52.2814744,47.3551774 51.8891983,48.2763828 Z M39.75,1.22863803 C39.75,4.30008148 38.6004939,7.16787656 36.3092485,9.82228061 C33.5442202,12.9778446 30.1997787,14.8012784 26.5730092,14.5135474 C26.5267959,14.1450697 26.5,13.7572583 26.5,13.3497341 C26.5,10.4011545 27.8149418,7.24559048 30.1500703,4.66548852 C31.315887,3.35913657 32.7985946,2.2729235 34.5966397,1.40643231 C36.3908013,0.55286816 38.0878763,0.0808224711 39.6839811,0 C39.7305827,0.410594833 39.75,0.821227575 39.75,1.22860012 L39.75,1.22863803 Z" id="apple-logo"></path>
                </g>
            </g>
        </g>
    </g>
</svg>